<svg xmlns="http://www.w3.org/2000/svg" width="100" height="100" viewBox="0 0 100 100">
  <g id="Group_33254" data-name="Group 33254" transform="translate(-257 -139)">
    <circle id="_-Background" data-name="⬛-Background" cx="50" cy="50" r="50" transform="translate(257 139)" fill="#fff"/>
    <g id="account_circle_black_24dp" transform="translate(257 139)" opacity="0.1">
      <g id="Group_33252" data-name="Group 33252">
        <rect id="Rectangle_3019" data-name="Rectangle 3019" width="100" height="100" fill="none"/>
      </g>
      <g id="Group_33253" data-name="Group 33253" transform="translate(8.333 8.333)">
        <path id="Path_26548" data-name="Path 26548" d="M43.667,2A41.667,41.667,0,1,0,85.333,43.667,41.682,41.682,0,0,0,43.667,2Zm0,16.667A14.583,14.583,0,1,1,29.083,33.25,14.6,14.6,0,0,1,43.667,18.667Zm0,58.333A33.368,33.368,0,0,1,18.083,65,41.464,41.464,0,0,1,69.25,65,33.368,33.368,0,0,1,43.667,77Z" transform="translate(-2 -2)"/>
      </g>
    </g>
  </g>
</svg>
